<svg xmlns="http://www.w3.org/2000/svg" width="32" height="32" viewBox="0 0 32 32" fill="none">
  <defs>
    <linearGradient id="bg" x1="0" y1="0" x2="32" y2="32" gradientUnits="userSpaceOnUse">
      <stop offset="0%" stop-color="#0F1420"/><stop offset="100%" stop-color="#090D18"/>
    </linearGradient>
    <linearGradient id="accent" x1="16" y1="7" x2="16" y2="25" gradientUnits="userSpaceOnUse">
      <stop offset="0%" stop-color="#E8FF47"/><stop offset="100%" stop-color="#C4D900"/>
    </linearGradient>
    <linearGradient id="pL" x1="10" y1="7" x2="14" y2="25" gradientUnits="userSpaceOnUse">
      <stop offset="0%" stop-color="#B97EFF"/><stop offset="100%" stop-color="#7C3FD4"/>
    </linearGradient>
    <linearGradient id="pR" x1="22" y1="7" x2="18" y2="25" gradientUnits="userSpaceOnUse">
      <stop offset="0%" stop-color="#B97EFF"/><stop offset="100%" stop-color="#7C3FD4"/>
    </linearGradient>
    <filter id="glow" x="-60%" y="-20%" width="220%" height="140%">
      <feGaussianBlur stdDeviation="1" result="blur"/>
      <feMerge><feMergeNode in="blur"/><feMergeNode in="SourceGraphic"/></feMerge>
    </filter>
  </defs>
  <rect width="32" height="32" rx="8" fill="url(#bg)"/>
  <rect x="0.5" y="0.5" width="31" height="31" rx="7.5" stroke="#2A2050" stroke-width="1"/>
  <path d="M13.5 7.5 C11 7.5 10 9 10 11 L10 14 C10 15.5 9.2 16 8.5 16.5 C9.2 17 10 17.5 10 19 L10 22 C10 24 11 25.5 13.5 25.5" stroke="url(#pL)" stroke-width="2" stroke-linecap="round" stroke-linejoin="round"/>
  <path d="M18.5 7.5 C21 7.5 22 9 22 11 L22 14 C22 15.5 22.8 16 23.5 16.5 C22.8 17 22 17.5 22 19 L22 22 C22 24 21 25.5 18.5 25.5" stroke="url(#pR)" stroke-width="2" stroke-linecap="round" stroke-linejoin="round"/>
  <line x1="16" y1="8" x2="16" y2="24.5" stroke="url(#accent)" stroke-width="1.6" stroke-linecap="round" filter="url(#glow)"/>
  <line x1="14" y1="13" x2="18" y2="13" stroke="#E8FF47" stroke-width="1" stroke-linecap="round" opacity="0.55"/>
  <line x1="14" y1="19.5" x2="18" y2="19.5" stroke="#E8FF47" stroke-width="1" stroke-linecap="round" opacity="0.55"/>
</svg>
