<svg xmlns="http://www.w3.org/2000/svg" width="64" height="64" viewBox="0 0 64 64" fill="none">
  <defs>
    <linearGradient id="bg" x1="0" y1="0" x2="64" y2="64" gradientUnits="userSpaceOnUse">
      <stop offset="0%" stop-color="#0F1420"/><stop offset="100%" stop-color="#090D18"/>
    </linearGradient>
    <linearGradient id="accent" x1="32" y1="14" x2="32" y2="50" gradientUnits="userSpaceOnUse">
      <stop offset="0%" stop-color="#E8FF47"/><stop offset="100%" stop-color="#C4D900"/>
    </linearGradient>
    <linearGradient id="pL" x1="18" y1="14" x2="26" y2="50" gradientUnits="userSpaceOnUse">
      <stop offset="0%" stop-color="#B97EFF"/><stop offset="100%" stop-color="#7C3FD4"/>
    </linearGradient>
    <linearGradient id="pR" x1="46" y1="14" x2="38" y2="50" gradientUnits="userSpaceOnUse">
      <stop offset="0%" stop-color="#B97EFF"/><stop offset="100%" stop-color="#7C3FD4"/>
    </linearGradient>
    <filter id="glowY" x="-50%" y="-20%" width="200%" height="140%">
      <feGaussianBlur stdDeviation="1.8" result="blur"/>
      <feMerge><feMergeNode in="blur"/><feMergeNode in="SourceGraphic"/></feMerge>
    </filter>
    <filter id="glowP" x="-20%" y="-10%" width="140%" height="120%">
      <feGaussianBlur stdDeviation="1.2" result="blur"/>
      <feMerge><feMergeNode in="blur"/><feMergeNode in="SourceGraphic"/></feMerge>
    </filter>
  </defs>
  <rect width="64" height="64" rx="14" fill="url(#bg)"/>
  <rect x="0.75" y="0.75" width="62.5" height="62.5" rx="13.5" stroke="#2A2050" stroke-width="1.5"/>
  <rect x="1.5" y="1.5" width="61" height="61" rx="13" stroke="#6B2FC0" stroke-width="0.5" opacity="0.3"/>
  <path d="M27 15 C23 15 21 17 21 21 L21 27 C21 30 19.5 31.5 18 32 C19.5 32.5 21 34 21 37 L21 43 C21 47 23 49 27 49" stroke="url(#pL)" stroke-width="3.5" stroke-linecap="round" stroke-linejoin="round" filter="url(#glowP)"/>
  <path d="M37 15 C41 15 43 17 43 21 L43 27 C43 30 44.5 31.5 46 32 C44.5 32.5 43 34 43 37 L43 43 C43 47 41 49 37 49" stroke="url(#pR)" stroke-width="3.5" stroke-linecap="round" stroke-linejoin="round" filter="url(#glowP)"/>
  <line x1="32" y1="16" x2="32" y2="48" stroke="url(#accent)" stroke-width="2.5" stroke-linecap="round" filter="url(#glowY)"/>
  <line x1="29" y1="26" x2="35" y2="26" stroke="#E8FF47" stroke-width="1.5" stroke-linecap="round" opacity="0.55"/>
  <line x1="29" y1="38" x2="35" y2="38" stroke="#E8FF47" stroke-width="1.5" stroke-linecap="round" opacity="0.55"/>
</svg>
